<svg width="25" height="25" viewBox="0 0 25 25" fill="none" xmlns="http://www.w3.org/2000/svg">
<path d="M18.0105 4.31249L17.9376 8.2604C17.9272 8.80207 18.271 9.52082 18.7085 9.84374L21.2918 11.8021C22.948 13.0521 22.6772 14.5833 20.698 15.2083L17.3335 16.2604C16.771 16.4375 16.1772 17.0521 16.0314 17.625L15.2293 20.6875C14.5939 23.1042 13.0105 23.3437 11.698 21.2187L9.86467 18.25C9.53133 17.7083 8.73967 17.3021 8.11467 17.3333L4.63554 17.5104C2.14596 17.6354 1.43762 16.1979 3.06262 14.3021L5.1251 11.9062C5.51051 11.4583 5.68759 10.625 5.51051 10.0625L4.45848 6.6979C3.84389 4.71874 4.94805 3.625 6.9168 4.27083L9.98972 5.28125C10.5106 5.44792 11.2918 5.33332 11.7293 5.01041L14.9376 2.69791C16.6668 1.44791 18.0522 2.17708 18.0105 4.31249Z" fill="#614731"/>
</svg>
