<svg width="40" height="36" viewBox="0 0 40 36" fill="none" xmlns="http://www.w3.org/2000/svg">
<path fill-rule="evenodd" clip-rule="evenodd" d="M37.3775 11.4876C41.2687 20.1573 36.8192 30.1019 27.439 33.6984C18.058 37.2949 7.29947 33.1824 3.40825 24.5119C-0.482976 15.8422 3.96655 5.89845 13.3467 2.30194C22.7268 -1.2954 33.4862 2.81795 37.3775 11.4876Z" stroke="#42774D" stroke-width="2"/>
<path fill-rule="evenodd" clip-rule="evenodd" d="M17.0928 19.0454L26.8304 22.6744C26.6094 22.1127 26.0768 20.8881 25.1764 19.5194C23.5505 17.0525 21.4859 15.2989 19.2036 14.4474C16.9197 13.5959 14.0833 13.5231 10.9996 14.2349C8.70584 14.7654 7.08319 15.5352 7.01557 15.5679C6.68247 15.7269 6.52251 16.0776 6.633 16.4016C6.65608 16.4685 7.20027 18.0452 8.40901 19.8806C10.0333 22.3475 12.0996 24.1026 14.3818 24.9526C16.6641 25.8041 19.5004 25.8769 22.5841 25.1651C23.7203 24.9021 24.6916 24.5811 25.3908 24.3195C25.7453 24.1873 26.029 24.0713 26.2302 23.9837L16.4926 20.3546C16.0902 20.206 15.9006 19.7914 16.0655 19.4288C16.232 19.0677 16.6921 18.8953 17.0928 19.0454" fill="#42774D"/>
<path fill-rule="evenodd" clip-rule="evenodd" d="M32.771 10.724C32.5907 10.4254 32.1932 10.2821 31.8259 10.3811C31.6204 10.4373 26.7583 11.7807 25.1596 15.1694C25.0972 15.3025 25.0416 15.4355 24.9911 15.5685C25.7071 16.2912 26.3742 17.104 26.9824 18.004C27.1778 18.2907 27.3564 18.573 27.5198 18.8435L28.6553 16.4375C28.8238 16.0783 29.2938 15.9069 29.7032 16.0562C30.1142 16.2054 30.308 16.6163 30.1395 16.9769L28.4464 20.5681C28.7581 21.2317 28.9198 21.6795 28.9518 21.7697C29.0074 21.9278 29.0394 22.0889 29.0512 22.25C30.6365 21.5155 32.6969 20.2327 33.6336 18.2449C35.2324 14.8547 32.8721 10.891 32.771 10.724" fill="#42774D"/>
</svg>
